<svg id="logo-aes" xmlns="http://www.w3.org/2000/svg" viewBox="0 0 115 115">
    <g fill="none" fill-rule="nonzero">
        <g transform="translate(8 34.46)">
            <path stroke-width="3" d="M26.73 44.18C12.396 49.41 2.212 51.475.994 48.906c-1.217-2.568 6.827-9.143 19.945-16.928A29.612 29.612 0 0 0 26.73 44.18zM73.27 7.17C87.604 1.943 97.788-.122 99.006 2.447c1.217 2.569-6.827 9.144-19.945 16.929A29.612 29.612 0 0 0 73.27 7.17zM20.951 19.32C7.828 11.509-.219 4.918 1.002 2.354 2.222-.21 12.414 1.88 26.754 7.141A29.614 29.614 0 0 0 20.95 19.32zM79.05 32.032c13.123 7.81 21.17 14.401 19.949 16.965-1.22 2.564-11.412.474-25.752-4.786a29.614 29.614 0 0 0 5.803-12.18z"/>
            <circle cx="11.486" cy="37.162" r="6.081" fill="#028484"/>
            <circle cx="84.459" cy="47.973" r="6.081" fill="#028484"/>
        </g>
        <path stroke-width="3" d="M58 30.405c16.42 0 29.73 13.31 29.73 29.73S74.42 89.865 58 89.865s-29.73-13.31-29.73-29.73S41.58 30.405 58 30.405z"/>
        <path stroke-linecap="round" stroke-linejoin="round" stroke-width="3" d="M63.405 83.108l.841-.258a23.758 23.758 0 0 0 16.797-22.715A23.714 23.714 0 0 0 64.237 37.45l-.832-.253M52.7 83.074l-.842-.258a23.758 23.758 0 0 1-16.796-22.715 23.714 23.714 0 0 1 16.805-22.685l.832-.254M52.72 60.135H36.081"/>
        <path stroke-linecap="round" stroke-linejoin="round" stroke-width="3" d="M58 96V25h20.27-40.54"/>
    </g>
</svg>
