<svg id="logo-itf" xmlns="http://www.w3.org/2000/svg" viewBox="0 0 115 115">
    <g fill="none" fill-rule="nonzero">
        <g transform="translate(13 20)">
            <path stroke-width="3" d="M29.594 59.592C17.534 61.604 8.1 59.77 5.33 53.927c-3.7-7.807 5.67-20.292 21.707-30.244a100.869 100.869 0 0 0-.629 11.495c.014 9.037 1.187 17.435 3.187 24.414zm30.922-48.959c12.007-1.982 21.394-.142 24.155 5.684 3.69 7.783-5.613 20.215-21.559 30.152.405-3.62.618-7.424.612-11.347-.013-9.07-1.195-17.495-3.208-24.489z"/>
            <path stroke-width="3" d="M27.057 46.557C11.012 36.575 1.643 24.06 5.36 16.254c2.773-5.827 12.18-7.65 24.201-5.639-2.003 7.012-3.166 15.465-3.153 24.563.006 3.936.232 7.75.65 11.379zm36.02-22.786C79.04 33.74 88.348 46.205 84.642 53.99c-2.763 5.805-12.107 7.636-24.06 5.662 1.997-7.006 3.157-15.447 3.143-24.53-.006-3.926-.23-7.73-.646-11.35z"/>
            <circle cx="4.939" cy="22.5" r="4.939" fill="#d78b37"/>
            <circle cx="85.061" cy="49.939" r="4.939" fill="#d78b37"/>
            <path stroke-linecap="round" stroke-linejoin="round" stroke-width="3" d="M31.325 4.82c.912 1.85 1.882 3.416 2.91 4.698 1.252 1.563 2.893 3.083 4.923 4.558.317-1.652.989-3.487 2.013-5.504 1.024-2.018 2.954-4.511 5.79-7.481-.06 3.373.391 5.948 1.353 7.727.963 1.778 2.18 3.53 3.653 5.258.408-1.04 1.296-2.56 2.662-4.558a76.13 76.13 0 0 1 3.896-5.196c3.204 7.575 5.18 17.835 5.197 29.135.035 23.328-8.29 42.25-18.595 42.266-10.305.016-18.687-18.882-18.722-42.21-.017-11.074 1.85-21.156 4.92-28.693z"/>
        </g>
        <path stroke-width="3" d="M18.488 43.049h49.437c2.05 0 3.074 1.144 3.074 3.433 0 2.303-1.033 3.454-3.1 3.454-3.102 0-15.652-.023-18.812-.023-2.107 0-3.16 1.152-3.16 3.457 0 2.28 1.093 3.419 3.282 3.419 3.282 0 15.585-.033 18.688-.033 2.068 0 3.102 1.148 3.102 3.446 0 2.293-1.021 3.441-3.064 3.443-3.065.004-15.43-.003-18.72 0-2.192 0-3.289 1.15-3.289 3.445 0 2.265 1.075 3.398 3.225 3.398H98.61"/>
    </g>
</svg>
