<svg xmlns="http://www.w3.org/2000/svg" width="80" height="50" viewBox="0 0 80 50">
    <g fill="none" fill-rule="nonzero">
        <ellipse cx="40" cy="24" stroke="#FFFFFC" rx="40" ry="17" transform="rotate(-25.362 40 24)"/>
        <ellipse cx="40" cy="24" stroke="#FFFFFC" rx="40" ry="17" transform="rotate(25.453 40 24)"/>
        <circle cx="16" cy="47" r="3" fill="#FFFFFC"/>
        <circle cx="64" cy="47" r="3" fill="#FFFFFC"/>
        <path fill="#FFFFFC" d="M31.738 25.325l.538-.098h.767l-1.257-.566c-.902-.829-1.353-1.9-1.353-3.215s.435-2.273 1.305-2.874c.684-.434 1.388-.434 2.11 0s1.24 1.133 1.557 2.097c.04.859-.03 1.524-.21 1.995-.18.47-.11.91.21 1.317.3.305.556.305.765 0 .21-.304.272-1.315.186-3.031-.11-.986-.068-2.05.129-3.19.196-1.142.06-2.094-.41-2.857l-2.573-3.922c-.163-.308-.467-.518-.91-.63-.444-.112-1.034-.533-1.77-1.264-1.051-1.091-1.576-1.883-1.576-2.374 0-.49.22-.967.662-1.43.46-.325.865-.37 1.216-.136.35.235.817 1.148 1.4 2.738.11.501.238.751.385.751.219 0 3.087 1.885 3.576 2.345.488.461 2.133 2.766 3.077 6.185.63 2.28.943 4.057.938 5.334.235.892.535 1.543.898 1.955.364.412.546 1.29.546 2.635.105 2.147.688 3.287 1.748 3.421 1.06.134 2.652.28 4.776.436 1.261.287 2.102.785 2.523 1.493.42.708.85 1.319 1.285 1.83.503.611.873.554 1.11-.172.238-.726.69-1.629 1.355-2.708.817-1.157 1.609-1.713 2.376-1.667.767.046 1.386-.22 1.858-.799.11-.224.164-.496.164-.815 0-.319.177-.501.532-.547.374-.01.611.114.713.368.101.255.531.314 1.29.18.824-.12 1.451-.12 1.88 0 .43.118.63.245.598.38.047.117-.002.202-.146.257-.145.054-.474.114-.987.177-.232-.002-.402.063-.509.196-.16.199-1.04 1.17-1.239 1.235-.199.064-1.08.245-1.27.485-.127.16-.826.897-2.096 2.212-1.201 1.218-1.936 2.16-2.204 2.824-.268.664-.014.896.761.695.123-.345.475-.577 1.055-.695s1.73-.193 3.452-.225c.624.2 1.102-.136 1.434-1.01.332-.873.803-1.108 1.412-.703.437 1.142 1.039 1.713 1.806 1.713.767 0 1.462.307 2.086.92.318.41.377.666.177.767-.2.1-.988.08-2.364-.06-1.084-.127-1.74-.229-1.965-.306-.34-.116-.323-.568-.738-.322-.414.246-2.64 1.872-4.041 2.406-1.401.533-1.927 1.08-2.78.914-.852-.167-1.636-.227-2.46-.404-.55-.119-1.582-.48-3.096-1.086-3.783-.636-6.303-1.365-7.558-2.188-1.256-.823-2.69-1.608-4.3-2.354-1.333.198-2.82-.525-4.463-2.17-1.642-1.643-3.046-2.65-4.21-3.021-2.41-.306-4.17-.778-5.28-1.416-1.666-.958-2.639-.406-4.843-3.635-1.469-2.153-2.367-3.6-2.695-4.343.15-.706-.193-1.031-1.03-.977-.838.054-1.582-.35-2.233-1.21-.552-.524-.828-.977-.828-1.36 0-.382.209-.601.627-.657.837-.273 1.363-.273 1.578 0 .215.272.668.547 1.359.824.588-.032.993.033 1.215.196.334.244.23 1.475.58 2.055.233.387.94 1.08 2.12 2.08 1.603 1.51 2.507 2.421 2.711 2.733.205.311.486.593.846.844.415.282 1.216.473 2.4.574 1.184.101 2.25.307 3.195.618.747.208 1.285.312 1.613.312.33 0 .494-.02.494-.06z"/>
        <path fill="#E32031" d="M12.094 15.038V17l2.647-1.376.714.981 1.096-.385.736.66.667-.922-1.105-.773 1.105-.725-.169-.298.31-.275-.808-.552 1.792-.414-.984-.757 1.797-.638L21 9.153l-1.92 1.21-.985-.495-1.544 1.46-.826.534.11-.929L16.05 9l-1.763 1.363-3.927-1.21 1.733 2.176L10 11.215l1.196.949-.343.757.525.268-1.295.698z"/>
    </g>
</svg>
